<svg width="48" height="48" viewBox="0 0 48 48" fill="none" xmlns="http://www.w3.org/2000/svg">
<path d="M24 36L32 28L29.2 25.2L26 28.4V20H22V28.4L18.8 25.2L16 28L24 36ZM10 16V38H38V16H10ZM10 42C8.9 42 7.95 41.6167 7.15 40.85C6.38333 40.05 6 39.1 6 38V13.05C6 12.5833 6.06667 12.1333 6.2 11.7C6.36667 11.2667 6.6 10.8667 6.9 10.5L9.4 7.45C9.76667 6.98333 10.2167 6.63333 10.75 6.4C11.3167 6.13333 11.9 6 12.5 6H35.5C36.1 6 36.6667 6.13333 37.2 6.4C37.7667 6.63333 38.2333 6.98333 38.6 7.45L41.1 10.5C41.4 10.8667 41.6167 11.2667 41.75 11.7C41.9167 12.1333 42 12.5833 42 13.05V38C42 39.1 41.6 40.05 40.8 40.85C40.0333 41.6167 39.1 42 38 42H10ZM10.8 12H37.2L35.5 10H12.5L10.8 12Z" fill="#1D1B20"/>
</svg>
