<svg width="128" height="123" viewBox="0 0 128 123" fill="none" xmlns="http://www.w3.org/2000/svg">
<rect width="128" height="123" rx="61.5" fill="#625B71" fill-opacity="0.16"/>
<path fill-rule="evenodd" clip-rule="evenodd" d="M83.2008 49.2C83.2008 59.3897 74.6047 67.65 64.0008 67.65C53.3969 67.65 44.8008 59.3897 44.8008 49.2C44.8008 39.0103 53.3969 30.75 64.0008 30.75C74.6047 30.75 83.2008 39.0103 83.2008 49.2ZM76.8008 49.2C76.8008 55.9931 71.07 61.5 64.0008 61.5C56.9315 61.5 51.2008 55.9931 51.2008 49.2C51.2008 42.4069 56.9315 36.9 64.0008 36.9C71.07 36.9 76.8008 42.4069 76.8008 49.2Z" fill="#A2845E"/>
<path d="M64.0008 76.875C43.2828 76.875 25.6305 88.6474 18.9062 105.141C20.5443 106.704 22.2699 108.182 24.0753 109.569C29.0825 94.4262 44.7903 83.025 64.0008 83.025C83.2113 83.025 98.9191 94.4262 103.926 109.569C105.732 108.182 107.457 106.704 109.095 105.141C102.371 88.6474 84.7188 76.875 64.0008 76.875Z" fill="#A2845E"/>
</svg>
