<svg width="26" height="26" viewBox="0 0 26 26" fill="none" xmlns="http://www.w3.org/2000/svg">
<g clip-path="url(#clip0_72_5834)">
<path d="M1.0835 1.08333H5.41683L8.32016 15.5892C8.41923 16.0879 8.69056 16.536 9.08667 16.8548C9.48278 17.1737 9.97842 17.3431 10.4868 17.3333H21.0168C21.5252 17.3431 22.0209 17.1737 22.417 16.8548C22.8131 16.536 23.0844 16.0879 23.1835 15.5892L24.9168 6.5H6.50016M10.8335 22.75C10.8335 23.3483 10.3485 23.8333 9.75016 23.8333C9.15185 23.8333 8.66683 23.3483 8.66683 22.75C8.66683 22.1517 9.15185 21.6667 9.75016 21.6667C10.3485 21.6667 10.8335 22.1517 10.8335 22.75ZM22.7502 22.75C22.7502 23.3483 22.2651 23.8333 21.6668 23.8333C21.0685 23.8333 20.5835 23.3483 20.5835 22.75C20.5835 22.1517 21.0685 21.6667 21.6668 21.6667C22.2651 21.6667 22.7502 22.1517 22.7502 22.75Z" stroke="#1E1E1E" stroke-width="4" stroke-linecap="round" stroke-linejoin="round"/>
</g>
<defs>
<clipPath id="clip0_72_5834">
<rect width="26" height="26" fill="white"/>
</clipPath>
</defs>
</svg>
